# xmcd
#
# Track frame offsets:
#	150
#	16662
#	31750
#	48490
#	62303
#	76943
#	90454
#	107713
#	121751
#	139462
#	152676
#	168140
#	182478
#	195692
#	210033
#	227443
#
# Disc length: 3223 seconds
#
# Revision: 3
# Processed by: cddbd v1.5.2PL0 Copyright (c) Steve Scherf et al.
# Submitted via: EasyCDDAExtractor 11.9.9.666
#
DISCID=b00c9510
DTITLE=ALICIA VILLARREAL - EXITOS
DYEAR=1900
DGENRE=Country
TTITLE0=ROMPEME, MATAME
TTITLE1=TE APROVECHAS
TTITLE2=SOLO CONTIGO
TTITLE3=ACARICIAME
TTITLE4=HASTA MAÑANA
TTITLE5=JUGUETE
TTITLE6=CON LA MISMA PIEDRA
TTITLE7=YO SIN TU AMOR
TTITLE8=ADORABLE LADRON
TTITLE9=EL PRINCIPE
TTITLE10=HAY PAPACITO
TTITLE11=ESTA VEZ
TTITLE12=YA NO INSISTAS
TTITLE13=SOY LO PROHIBIDO
TTITLE14=QUE SEAS FELIZ
TTITLE15=HECHAME AMI LA CULPA
EXTD=
EXTT0=
EXTT1=
EXTT2=
EXTT3=
EXTT4=
EXTT5=
EXTT6=
EXTT7=
EXTT8=
EXTT9=
EXTT10=
EXTT11=
EXTT12=
EXTT13=
EXTT14=
EXTT15=
PLAYORDER=
